<?xml version="1.0" standalone="no"?>
<!DOCTYPE svg PUBLIC "-//W3C//DTD SVG 1.1//EN" "http://www.w3.org/Graphics/SVG/1.1/DTD/svg11.dtd" >
<svg xmlns="http://www.w3.org/2000/svg">
<metadata>Generated by IcoMoon</metadata>
<defs>
<font id="icomoon" horiz-adv-x="1024">
<font-face units-per-em="1024" ascent="960" descent="-64" />
<missing-glyph horiz-adv-x="1024" />
<glyph unicode="&#x20;" horiz-adv-x="512" d="" />
<glyph unicode="&#xe900;" glyph-name="add-notes" d="M928.256 496.64h-365.056v366.592c0 53.248 2.048 96.256-51.2 96.256s-51.2-43.008-51.2-96.256v-366.592h-364.544c-53.248 0-96.256 2.048-96.256-50.688s43.008-51.2 96.256-51.2h364.544v-363.52c0-53.248-2.048-96.256 51.2-96.256s51.2 43.008 51.2 96.256v363.52h365.056c53.248 0 95.744-2.048 95.744 51.2s-43.008 50.688-95.744 50.688z" />
<glyph unicode="&#xe901;" glyph-name="add" d="M512-61.634c-56.32 0-101.888 45.568-101.888 101.888v306.176h-306.176c-56.32 0-101.888 45.568-101.888 101.888s45.568 101.888 101.888 101.888h306.176v306.176c0 56.32 45.568 101.888 101.888 101.888s101.888-45.568 101.888-101.888v-306.176h306.176c56.32 0 101.888-45.568 101.888-101.888s-45.568-101.888-101.888-101.888h-306.176v-306.176c0-56.32-45.568-101.888-101.888-101.888z" />
<glyph unicode="&#xe902;" glyph-name="back" d="M484.352-51.712c-12.8 0-24.576 5.12-33.792 13.824l-434.176 434.688c-7.168 7.168-11.776 14.848-13.824 24.576-1.024 4.608-1.536 7.168-1.536 10.24 0 3.584 0.512 6.656 1.024 10.24 2.048 9.216 6.656 17.408 12.8 23.552l436.224 435.712c8.704 8.704 20.992 13.824 33.792 13.824s24.576-5.12 33.792-13.824c8.704-8.704 13.824-20.992 13.824-33.28s-5.12-24.576-13.824-33.28l-355.328-355.84h813.568c26.112 0 47.616-21.504 47.616-47.616s-21.504-47.616-47.616-47.616h-813.568l354.816-354.816c18.432-18.432 18.432-48.64 0-67.072-8.704-8.192-20.992-13.312-33.792-13.312z" />
<glyph unicode="&#xe903;" glyph-name="block" d="M512 959.488c-282.112 0-512-229.376-512-512s229.376-512 512-512 512 229.376 512 512-229.376 512-512 512zM512 897.024c247.808 0 449.536-201.728 449.536-449.536s-201.728-449.536-449.536-449.536-449.024 202.24-449.024 450.048 201.216 449.024 449.024 449.024zM787.456 488.96h-550.4c-23.040 0-41.472-18.432-41.472-40.96s18.432-40.96 41.472-40.96h550.4c23.040 0 41.472 18.432 41.472 40.96s-18.944 40.96-41.472 40.96z" />
<glyph unicode="&#xe904;" glyph-name="cancel" d="M1003.008 56.832l-392.704 392.704 389.632 389.632c27.648 27.648 27.648 72.704 0 100.352s-72.704 27.648-100.352 0l-385.024-385.024-384.512 384.512c-27.648 28.16-72.704 28.16-100.352 0-27.648-27.648-27.648-72.704 0-100.352l392.704-392.704-389.12-389.12c-27.648-27.648-27.648-72.704 0-100.352s72.704-27.648 100.352 0l385.024 385.024 385.024-385.024c27.648-27.648 72.704-27.648 100.352 0s27.136 72.704-1.024 100.352z" />
<glyph unicode="&#xe905;" glyph-name="checkout" d="M190.464 181.248c-37.888 0-69.12-31.232-69.12-69.12s31.232-69.12 69.12-69.12c37.888 0 69.12 31.232 69.12 69.12s-31.232 69.12-69.12 69.12zM190.464 81.92c-16.384 0-29.696 13.312-29.696 29.696s13.312 29.696 29.696 29.696 29.696-13.312 29.696-29.696c0-16.384-13.312-29.696-29.696-29.696zM798.72 501.76c-11.264 3.584-23.040-2.048-26.624-13.312l-20.48-60.928c-11.776-26.112-44.544-48.128-76.288-48.128h-411.136l-90.624 286.72h653.312l-19.968-59.904c-3.584-11.264 2.048-23.040 13.312-26.624 2.048-0.512 4.608-1.024 6.656-1.024 8.704 0 16.896 5.632 19.968 14.336l25.6 86.016c1.024 2.048 1.024 4.608 1.024 6.656 0 10.752-8.704 19.968-19.968 19.968-3.584 0-109.056 0-109.056 0v59.904c0 10.24-9.216 19.968-19.968 19.968h-198.144v29.696c0 10.24-9.216 19.968-19.968 19.968h-217.088c-10.752 0-19.968-10.752-19.968-19.968v-109.056h-108.544l-20.48 65.536c0 0 0 0 0 0.512-5.632 17.408-14.848 33.28-30.208 45.056-14.848 11.776-34.816 17.408-58.368 17.408h-29.696c-10.752 0-19.968-8.704-19.968-19.968 0-10.752 8.704-19.968 19.968-19.968h29.696c16.896 0 26.624-3.584 33.792-9.216s12.8-13.824 16.896-26.112v-0.512l121.856-384.512c-19.968-6.656-37.376-20.992-49.152-40.448-16.384-26.624-24.064-62.464-24.064-103.936 0-10.24 9.216-19.968 19.968-19.968h534.528c10.24 0 19.968 9.216 19.968 19.968s-9.728 19.968-19.968 19.968h-513.024c2.048 26.112 7.68 49.152 16.384 63.488 10.752 17.92 24.064 25.088 40.96 25.6 0.512 0 425.984 0 425.984 0 48.128 0 93.696 28.16 112.64 70.656 1.536 2.56 2.56 5.12 3.072 7.168l20.992 57.856c3.584 11.264-2.56 23.552-13.824 27.136zM526.848 745.472h178.176v-39.424h-178.176v39.424zM309.248 795.136h178.176v-89.088h-178.176v89.088zM685.568 181.248c-37.888 0-69.12-31.232-69.12-69.12s31.232-69.12 69.12-69.12c37.888 0 69.12 31.232 69.12 69.12s-31.232 69.12-69.12 69.12zM685.568 81.92c-16.384 0-29.696 13.312-29.696 29.696s13.312 29.696 29.696 29.696 29.696-13.312 29.696-29.696c0-16.384-13.312-29.696-29.696-29.696zM500.224 408.576c12.288 0 22.528 10.24 22.528 22.528v67.072h67.072c12.288 0 22.528 10.24 22.528 22.528s-10.24 22.528-22.528 22.528h-67.584v67.072c0 12.288-10.24 22.528-22.528 22.528s-22.528-10.24-22.528-22.528v-67.072h-66.56c-12.288 0-22.528-10.24-22.528-22.528s10.24-22.528 22.528-22.528h67.072v-67.072c0-12.8 10.24-22.528 22.528-22.528zM1019.904 548.352l-99.84 81.408c-2.048 1.536-4.608 2.56-7.168 2.56-3.584 0-6.656-1.536-8.704-4.096-4.096-4.608-3.072-11.776 1.536-15.36l74.752-60.928h-229.376c-6.656 0-12.288-5.632-12.288-12.288s5.632-12.288 12.288-12.288h229.888l-73.216-61.44c-2.048-2.048-3.584-4.608-4.096-7.68 0-3.072 0.512-5.632 2.56-8.192s5.12-4.096 8.704-4.096c2.56 0 5.12 1.024 7.168 2.56l97.792 81.92c2.56 2.048 4.096 5.12 4.096 8.704 0 4.096-1.536 7.168-4.096 9.216z" />
<glyph unicode="&#xe906;" glyph-name="drop-down-menu" d="M460.288 176.64l-439.296 439.296c-27.648 27.648-27.648 72.704 0 100.352s72.704 27.648 100.352 0l389.632-389.632 392.192 392.704c27.648 27.648 72.704 27.648 100.352 0s27.648-72.704 0-100.352l-442.88-442.368c-13.824-13.824-31.744-20.992-50.176-20.992s-36.352 7.168-50.176 20.992z" />
<glyph unicode="&#xe907;" glyph-name="edit-presc" d="M993.28 684.544c-16.384 0-30.72-13.824-30.72-30.72v-623.616c0-18.944-14.848-33.28-33.28-33.28h-833.536c-18.944 0-33.792 14.848-33.792 33.28v834.048c0 18.944 14.848 33.28 33.792 33.28h623.616c16.384 0 30.72 13.824 30.72 30.72s-13.824 30.72-30.72 30.72h-623.616c-52.224 0-94.72-42.496-94.72-94.72v-833.536c0-52.224 42.496-94.72 94.72-94.72h833.536c52.224 0 94.72 42.496 94.72 94.72v623.616c0 16.896-13.312 30.208-30.72 30.208zM278.016 381.44l-54.784-189.44c-3.584-9.216-1.024-19.968 6.656-27.136 4.608-5.12 11.264-7.168 18.944-7.168l8.704 1.024 1.536 1.536 190.464 55.808c2.56 1.024 7.68 3.584 8.192 5.632l468.992 469.504 60.928 59.904c23.040 23.040 35.84 53.76 35.84 86.528s-12.8 63.488-35.84 86.528c-23.040 23.040-53.76 35.84-86.528 35.84s-63.488-12.8-88.576-38.912l-56.832-59.904-469.504-468.992c-4.608-3.072-6.144-6.144-8.192-10.752zM850.432 884.224v0l4.096 3.072c12.8 12.288 29.184 18.432 46.592 18.432 18.432-1.024 36.352-8.704 49.152-20.992 12.8-12.8 20.48-30.72 20.48-48.64 0-18.432-7.168-35.328-19.968-48.64l-41.984-40.96-97.28 97.28 38.912 40.448zM326.144 360.448l446.464 445.44 97.28-97.28-445.44-446.464-138.24-39.936 39.936 138.24z" />
<glyph unicode="&#xe908;" glyph-name="email" d="M1012.224 616.448l-85.504 51.712v133.632c0 13.312-10.752 28.672-24.576 28.672h-211.968l-151.552 98.304c-8.192 5.632-18.432 6.656-26.624 1.024l-154.624-99.328h-235.52c-13.312 0-24.576-14.848-24.576-28.672v-137.216l-84.992-47.616c-7.68-4.096-12.288-12.288-12.288-20.992v-623.104c0-13.312 10.752-20.48 24.576-20.48h975.36c13.312 0 24.576 6.656 24.576 20.48v623.104c-0.512 8.192-4.608 16.384-12.288 20.48zM524.8 881.152l76.8-50.688h-154.624l77.824 50.688zM145.92 781.312h731.648v-283.136l-351.744-318.464-379.904 337.92v263.68zM97.28 608.768v-47.616l-32.768 29.184 32.768 18.432zM929.28 561.152v47.616l32.768-29.184-32.768-18.432zM975.36 1.024h-926.72v538.112l461.312-410.112c4.608-4.096 10.24-6.144 16.384-6.144 5.632 0 11.776 2.048 16.384 6.144l432.64 391.68v-519.68zM594.944 375.296c-22.016-12.288-50.688-18.944-81.408-18.944-79.872 0-138.752 55.808-138.752 145.92 0 109.568 74.24 179.2 162.304 179.2 83.968 0 131.072-56.32 131.072-134.656 0-62.464-30.72-99.328-58.368-98.816-17.92 0.512-24.576 19.456-16.384 60.416l18.432 97.792c-13.824 6.656-34.816 11.264-57.856 11.264-75.264 0-128-60.928-128-128 0-42.496 27.136-68.096 58.368-68.096 32.256 0 57.344 15.872 76.288 47.616h2.048c-1.536-32.768 18.432-47.616 39.936-47.616 50.688 0 96.256 47.616 96.256 128.512 0 90.112-63.488 156.16-157.184 156.16-119.808 0-197.12-96.256-197.12-207.36 0-103.936 75.264-168.448 163.84-168.448 36.352 0 66.56 6.144 96.256 21.504l-9.728 23.552zM562.688 524.288c-6.144-33.792-34.816-73.728-66.048-73.728-24.064 0-35.84 17.408-35.84 40.96 0 52.224 38.4 97.28 86.016 97.28 12.288 0 21.504-2.048 27.136-3.584l-11.264-60.928z" />
<glyph unicode="&#xe909;" glyph-name="gender" d="M995.84 960h-144.896c-15.36 0-28.16-12.8-28.16-28.16s12.8-28.16 28.16-28.16h75.264l-133.12-134.656c-49.664 40.96-112.128 65.024-181.76 65.024-72.192 0-137.728-27.136-187.392-71.168-39.936 21.504-84.992 33.792-134.656 33.792-157.696 0-286.72-127.488-286.72-286.72 0-148.992 113.664-270.848 258.048-285.184v-126.464h-61.952c-15.36 0-28.16-12.8-28.16-28.16s12.8-28.16 28.16-28.16h62.464v-75.264c0-15.36 12.8-28.16 28.16-28.16s28.16 12.8 28.16 28.16v75.264h62.464c15.36 0 28.16 12.8 28.16 28.16s-12.8 28.16-28.16 28.16h-61.952v126.464c60.928 5.632 114.688 31.232 158.72 69.632 39.936-21.504 84.992-33.792 134.656-33.792 157.696 0 286.72 129.024 286.72 286.72 0 69.632-24.064 132.096-65.024 181.76l134.656 134.656v-75.264c0-15.36 12.8-28.16 28.16-28.16s28.16 12.8 28.16 28.16v143.36c0.512 15.36-12.288 28.16-28.16 28.16zM289.28 280.576c-126.464 0-229.888 103.424-229.888 229.888s103.424 229.888 229.888 229.888c33.792 0 65.024-7.168 93.696-19.968-36.864-48.128-58.368-108.032-58.368-173.056 0-88.064 39.936-167.424 103.424-219.648-37.888-30.208-86.016-47.104-138.752-47.104zM469.504 367.104c-53.76 42.496-88.064 108.032-88.064 180.224 0 53.76 18.432 103.424 51.2 143.36 53.76-43.008 88.064-108.032 88.064-180.224-1.536-54.272-19.968-103.936-51.2-143.36zM611.328 317.44c-33.792 0-65.024 7.168-93.696 19.968 36.864 48.128 58.368 108.032 58.368 173.056 0 88.064-39.936 167.424-103.424 219.648 38.4 29.696 86.528 46.592 139.264 46.592 126.464 0 229.888-103.424 229.888-229.888s-102.4-229.376-230.4-229.376z" />
<glyph unicode="&#xe90a;" glyph-name="live-chat" d="M219.136 611.328c-7.168-7.168-9.216-16.384-9.216-25.6s4.608-18.432 9.216-25.6c4.608-7.168 13.824-9.216 23.040-9.216s18.432 4.608 25.6 9.216c7.168 7.168 9.216 16.384 9.216 25.6s-4.608 18.432-9.216 25.6c-13.824 13.824-36.864 13.824-48.64 0zM532.48 560.64c7.168 7.168 9.216 16.384 9.216 25.6s-4.608 18.432-9.216 25.6c-13.824 13.824-36.864 13.824-48.64 0-7.168-7.168-9.216-16.384-9.216-25.6s4.608-18.432 9.216-25.6c4.608-7.168 13.824-9.216 23.040-9.216s18.432 4.608 25.6 9.216zM351.744 611.328c-7.168-7.168-9.216-16.384-9.216-25.6s4.608-18.432 9.216-25.6c4.608-7.168 13.824-9.216 23.040-9.216s18.432 4.608 25.6 9.216c7.168 7.168 9.216 16.384 9.216 25.6s-4.608 18.432-9.216 25.6c-14.336 13.824-37.376 13.824-48.64 0zM770.048 585.728c0 150.016-121.856 271.36-271.36 271.36h-225.28c-150.016 0-271.36-121.856-271.36-271.36 0-110.080 67.584-210.432 168.96-251.392v-101.376c0-19.968 16.384-36.352 36.352-36.352 9.216 0 18.944 4.096 25.6 10.752l106.496 106.496h158.72c149.504 0 271.872 121.856 271.872 271.872zM329.216 360.448c-7.168 0-12.8-2.048-17.408-6.656l-93.696-93.696v91.136c0 9.728-6.656 18.944-15.872 22.016-91.648 30.72-153.088 115.712-153.088 212.48 0 122.88 99.328 223.232 221.184 223.232h226.816c123.392 0 224.256-100.352 224.256-224.256s-100.352-224.256-224.256-224.256h-167.936zM850.944 526.336l-5.12 0.512c-10.24 0-19.456-7.68-22.528-18.944-1.536-6.144 0-12.8 3.584-17.92 3.584-4.608 8.704-8.192 14.848-9.728 77.824-14.848 134.656-82.944 134.656-162.304 0-70.656-45.056-133.12-112.64-156.16-9.216-3.072-15.872-12.288-15.872-22.016v-55.296l-62.976 62.976c-5.632 3.584-10.752 5.632-15.872 5.632h-127.488c-62.464 0-118.784 34.816-147.456 91.136-4.096 8.192-12.288 13.824-20.992 13.824-3.584 0-7.68-1.024-10.24-2.56-6.144-3.072-10.752-8.192-12.8-14.848-1.536-6.144-1.024-12.288 1.536-16.896 36.352-71.68 109.056-116.224 189.952-116.224h117.76l79.36-79.36c6.144-6.144 14.336-9.728 23.552-9.728 4.608 0 8.192 1.536 12.8 2.56 12.8 5.632 20.48 16.896 20.48 30.208v73.216c78.336 34.304 128.512 110.080 128.512 195.072 0 102.4-73.216 189.952-173.056 206.848z" />
<glyph unicode="&#xe90b;" glyph-name="location" d="M512 960c-205.312 0-372.224-166.912-372.224-372.224 0-127.488 106.496-321.536 152.064-399.36 39.424-67.072 81.92-129.024 119.808-175.104 5.632-5.632 11.264-12.8 17.408-19.968 23.552-27.136 49.664-58.368 82.432-58.88h2.048c41.984 9.216 70.656 44.544 93.696 72.704l5.12 6.144c37.376 45.568 79.872 107.52 119.296 174.592 45.568 77.312 152.064 270.848 152.064 399.36 0.512 205.824-166.4 372.736-371.712 372.736zM512-20.992c-26.624 12.8-48.64 39.936-67.584 62.464-35.84 44.032-76.8 103.936-115.2 168.448-89.088 151.040-146.432 299.008-146.432 377.856 0 181.248 147.456 329.216 329.216 329.216s329.216-147.456 329.216-329.216c0-79.36-57.344-227.328-145.92-377.344-38.4-64.512-79.36-124.416-115.2-168.448l-9.728-11.264c-17.92-20.48-34.816-40.448-58.368-51.712zM512 866.304h-1.024c-148.992-0.512-269.824-122.88-269.312-271.872 0.512-61.952 20.992-119.808 59.392-167.936 33.792-42.496 80.384-73.728 131.584-89.6l-52.736-52.736h68.096l134.144 134.144 55.296-55.296h62.464l-86.528 86.016 52.736 52.736v68.096l-87.040-87.040-51.712 51.2 4.608 1.536c51.2 13.824 87.040 60.416 87.040 113.664 0 65.024-52.736 117.76-117.76 117.76h-74.752c-9.216 0-18.432-3.072-25.6-9.216l-32.256-26.624c-5.12-4.096-2.048-12.288 4.608-12.288h129.536c37.376 0 68.096-30.72 68.096-68.608 0-36.864-30.208-67.584-67.072-68.096l-22.528-0.512v-0.512l-0.512-60.928 67.584-67.584-80.896-80.384-8.704 2.048c-48.64 11.776-93.184 39.936-124.416 79.36-32.256 40.448-49.664 89.6-50.176 141.824-0.512 125.952 101.376 228.352 226.816 228.864h1.024c124.928 0 227.328-101.888 227.84-226.816 0.512-59.392-22.016-115.2-62.976-158.208l-8.192-8.192 30.72-29.184 8.192 8.192c48.128 50.688 74.752 117.76 74.24 187.904 0 147.456-121.344 268.288-269.824 268.288z" />
<glyph unicode="&#xe90c;" glyph-name="medbox" d="M221.184 145.408c-44.544 0-81.408-36.864-81.408-81.408s36.864-81.408 81.408-81.408 81.408 36.864 81.408 81.408c0 44.544-36.864 81.408-81.408 81.408zM221.184 29.184c-19.456 0-34.816 15.36-34.816 34.816s15.36 34.816 34.816 34.816 34.816-15.36 34.816-34.816c0-19.456-15.36-34.816-34.816-34.816zM1000.96 762.368c-4.096 0-128 0-128 0v69.632c0 12.288-11.264 23.040-23.040 23.040h-232.96v34.816c0 12.288-11.264 23.040-23.040 23.040h-256c-12.8 0-23.040-12.8-23.040-23.040v-128h-128l-24.576 77.312c0 0 0 0 0 0.512-6.656 20.48-17.92 39.424-35.328 53.248s-40.96 20.48-68.608 20.48h-35.328c-12.8 0-23.040-10.24-23.040-23.040s10.24-23.040 23.040-23.040h34.816c19.456 0 31.232-4.096 39.424-10.752s14.848-16.384 19.456-30.72v-0.512l143.36-451.584c-23.552-8.192-44.032-24.576-57.856-47.104-19.456-31.744-28.16-73.728-28.16-122.368 0-12.288 11.264-23.040 23.040-23.040h628.224c12.288 0 23.552 10.752 23.552 23.040s-11.264 23.552-23.552 23.040h-601.6c2.56 30.72 8.704 57.856 19.456 74.752 12.8 20.992 28.16 29.696 48.128 30.208 0.512 0 500.224 0 500.224 0 61.952 0 121.344 39.936 138.752 98.304 0 0 89.6 292.352 92.672 301.056 1.024 2.56 1.536 5.12 1.536 8.192-0.512 11.776-10.752 22.528-23.552 22.528zM616.96 808.96h209.408v-46.592h-209.408v46.592zM360.96 866.816h209.408v-104.96h-209.408v104.96zM885.248 443.392c-10.24-33.792-53.248-65.024-94.208-65.024h-482.816l-107.008 337.408h768l-83.968-272.384zM802.816 145.408c-44.544 0-81.408-36.864-81.408-81.408s36.864-81.408 81.408-81.408 81.408 36.864 81.408 81.408c0 44.544-36.352 81.408-81.408 81.408zM802.816 29.184c-19.456 0-34.816 15.36-34.816 34.816s15.36 34.816 34.816 34.816c19.456 0 34.816-15.36 34.816-34.816s-15.36-34.816-34.816-34.816zM479.744 518.144h78.848v-78.848c0-14.336 11.776-26.112 26.112-26.112s26.112 11.776 26.112 26.112v78.848h78.848c14.336 0 26.112 11.776 26.112 26.112s-11.776 26.112-26.112 26.112h-78.848v79.36c0 14.336-11.776 26.112-26.112 26.112s-26.112-11.776-26.112-26.112v-78.848h-78.848c-14.336 0-26.112-11.776-26.112-26.112-0.512-14.848 11.264-26.624 26.112-26.624z" />
<glyph unicode="&#xe90d;" glyph-name="medicine" d="M519.68 340.48c0 0 10.752 32.768 11.776 35.84l79.36 243.2c38.4 118.272-26.624 246.272-144.896 284.672-118.272 38.912-246.272-26.112-284.672-144.384l-80.384-246.272c-1.024-2.56-7.68-23.552-7.68-23.552l-81.92-251.392c-38.4-118.272 26.112-246.272 144.896-284.672 23.040-7.68 46.592-11.264 70.144-11.264 35.328 0 70.144 8.192 101.888 24.576 53.76 27.136 93.696 73.728 112.64 131.584l78.848 241.664zM218.624 747.52c31.744 97.792 137.216 151.552 235.008 119.296 97.792-31.744 151.552-137.216 119.296-235.008l-78.848-242.176-354.304 116.224 78.848 241.664zM310.272 2.048c-44.544-22.528-94.72-26.624-142.336-11.264-97.28 32.256-151.040 137.728-119.296 235.52l78.848 242.176 354.816-115.712-78.848-242.176c-15.872-47.616-48.64-86.016-93.184-108.544zM178.688 56.832c-110.592 53.76-68.608 154.112-66.56 158.208l65.536 200.192c3.584 10.24-2.048 21.504-12.8 25.088-10.24 3.584-21.504-2.048-25.088-12.8l-64.512-197.12c-20.992-48.128-29.696-152.576 86.016-208.896 2.56-1.536 5.632-2.048 8.704-2.048 7.168 0 14.336 4.096 17.92 11.264 4.608 9.216 0.512 20.992-9.216 26.112zM1024 272.384c0 78.848-173.056 119.808-344.576 119.808-42.496 0-83.968-2.56-123.392-7.168-10.752-1.536-18.432-11.264-17.408-22.016 1.536-10.752 11.264-18.432 22.016-17.408 37.888 4.608 77.824 7.168 118.272 7.168 186.368 0 305.152-47.616 305.152-80.384s-118.784-80.384-305.152-80.384c0 0 0 0 0 0-58.368 0-115.712 5.12-165.376 14.336-10.752 2.048-20.992-5.12-23.040-15.872s5.12-20.992 15.872-23.040c52.224-9.728 111.616-14.848 172.544-14.848 0 0 0 0 0 0 121.344 0 244.224 20.992 305.152 60.928v-98.816c0-32.768-118.784-80.384-305.152-80.384-69.12 0-166.4 9.216-216.576 29.696-10.24 4.096-21.504-1.024-25.6-10.752-4.096-10.24 1.024-21.504 10.752-25.6 55.296-22.528 156.16-32.256 231.424-32.256 171.008 0 344.576 40.96 344.576 119.808v141.824c0 2.048-0.512 4.096-1.024 6.144 1.024 2.56 1.536 5.632 1.536 9.216zM583.68 204.288c2.56 0 5.632 0.512 8.192 2.048l206.336 94.72c9.728 4.608 14.336 16.384 9.728 26.112s-16.384 14.336-26.112 9.728l-206.336-94.72c-9.728-4.608-14.336-16.384-9.728-26.112 3.072-7.68 10.24-11.776 17.92-11.776z" />
<glyph unicode="&#xe90e;" glyph-name="password" d="M868.352 622.080h-538.112c0 1.024 0 1.024 0 2.56v155.648c0 63.488 52.736 116.224 116.224 116.224h181.248c63.488 0 116.224-52.736 116.224-116.224v-9.728c0-17.408 13.312-30.72 30.72-30.72s30.72 13.312 30.72 30.72v9.728c0 97.792-79.872 177.664-177.664 177.664h-180.736c-98.304 0-177.664-79.872-177.664-177.664v-156.672c0-1.024 0-1.024 0-2.56h-77.312c-49.152 0-89.6-40.448-89.6-89.6v-505.856c0-49.152 40.448-89.6 89.6-89.6h677.376c49.152 0 89.6 40.448 89.6 89.6v505.856c0 50.176-40.448 90.624-90.624 90.624zM869.376-2.56h-677.376c-15.872 0-29.184 12.288-29.184 28.16v505.856c0 15.872 13.312 28.16 28.16 28.16h677.376c15.872 0 28.16-13.312 28.16-28.16l1.024-505.856c0-15.872-13.312-28.16-28.16-28.16zM529.92 388.096c-39.424 0-71.168-31.744-71.168-71.168 0-29.184 18.432-55.296 44.032-66.048v-81.92c0-13.312 11.264-25.6 25.6-25.6 13.312 0 25.6 11.264 25.6 25.6v80.896c28.16 9.728 47.616 36.864 47.616 67.584-0.512 37.376-32.256 70.656-71.68 70.656z" />
<glyph unicode="&#xe90f;" glyph-name="pharmacy" d="M528.384 16.384c-38.912 33.792-19.968 65.024-11.264 75.776h-71.68c-8.192-16.896-16.384-50.176 22.528-78.336 61.44-44.032 82.432-43.008 92.672-78.336 9.728 52.736-2.56 55.296-32.256 80.896zM366.080 841.728c4.096 0 9.216 0.512 14.336 1.536l88.576 16.896c45.056 7.168 34.304 27.648 34.304 27.648 15.36 6.144 30.208 9.216 44.544 9.216 53.248 0 91.648-40.448 69.12-90.624-7.68-16.384-19.456-32.768-33.792-48.64h77.824c32.768 58.88 31.744 128.512-30.72 173.568-26.624 19.456-56.832 26.624-87.040 26.624-59.392 0-120.32-29.696-159.232-54.272-41.472-26.624-55.296-61.952-17.92-61.952zM587.776 235.52c8.192-11.264 18.432-19.968 32.768-26.112 4.608-1.536 9.728-2.56 14.848-4.096 7.168 10.24 12.8 20.48 17.92 30.208 10.752 22.016 16.896 42.496 17.92 62.464 1.024 25.6-7.168 49.152-20.48 67.584-12.288 16.896-26.112 29.696-40.448 39.936-3.584 2.56-6.656 4.608-10.24 7.168-7.168 4.608-14.336 8.192-21.504 11.776-5.632 2.56-11.264 5.12-16.896 7.168s-11.264 4.096-16.896 6.144c-13.312 4.608-26.624 8.192-40.448 12.288-6.656 1.536-13.824 3.584-20.992 5.632-5.632 1.536-11.264 3.072-16.896 4.608s-11.264 3.072-16.384 5.12c-4.096 1.024-7.68 2.56-11.776 3.584-25.088 7.68-48.128 15.872-62.464 22.016-10.24 4.608-18.944 8.704-25.6 11.776-5.632 2.56-10.752 4.608-15.872 7.168-5.12-5.12-39.936-43.52 28.16-74.752 36.352-16.896 49.664-22.016 87.040-32.768 5.12-1.536 10.752-3.072 16.896-5.12 1.024 0 1.536-0.512 2.56-0.512 4.608-1.536 9.728-2.56 14.336-4.096l60.928-19.456c5.632-2.048 11.264-4.608 16.896-7.168 4.096-2.048 7.68-4.096 11.264-6.144 2.048-1.024 3.584-2.56 5.632-3.584 10.752-7.168 17.92-13.824 24.064-22.528 7.168-9.728 11.776-21.504 11.264-34.816-0.512-14.336-5.632-34.304-21.504-59.392-1.536 0-2.56-2.048-4.096-4.096zM663.552 184.832c-57.344 7.168-79.872 17.92-93.696 43.008-1.536 2.56-3.584 8.192-5.12 18.944-4.608 28.16-4.608 41.472-4.096 89.088 0 5.12-2.048 9.728-5.632 13.824-3.584 3.584-8.704 5.632-13.824 5.632-10.24 0-18.944-8.704-19.456-23.040-0.512-45.056-0.512-60.416 4.608-91.648 2.048-13.312 5.12-23.040 9.216-30.72 17.92-33.28 45.568-48.128 84.992-56.832 7.168-1.536 15.36-3.072 23.552-4.608 2.048-0.512 3.584-0.512 5.632-1.024h-275.968c1.536 0 2.56 0.512 4.096 1.024 8.704 1.536 17.408 3.072 25.088 4.608 39.424 8.704 66.56 23.552 84.48 56.832 14.848 28.16 14.336 65.536 13.824 128v16.896c0 10.24-8.704 18.944-19.456 18.944-5.12 0-9.728-2.048-13.312-5.632s-5.632-8.704-5.632-13.824v-16.896c0.512-54.272 1.024-89.6-9.216-109.568-13.824-25.6-36.864-36.352-93.696-43.52-24.064-3.072-43.008-13.824-52.736-30.208-5.12-8.704-6.144-17.92-4.608-26.624-0.512-4.608-0.512-9.216 1.024-13.824 1.536-4.096 5.632-7.168 10.24-7.168h394.752c4.608 0 8.704 3.072 10.752 7.168 1.536 4.096 2.048 9.216 1.024 13.824 1.536 8.704 0.512 17.92-4.608 26.624-9.216 16.896-28.16 27.648-52.224 30.72zM806.912 735.232h-589.824c-6.144 0-11.264-5.12-11.264-11.264 0-15.36 2.56-30.72 6.656-45.056 18.944-94.72 114.176-172.544 240.128-191.488 5.632-1.024 11.264-1.536 16.896-2.048s11.264-1.024 16.896-1.536c9.216-0.512 17.408-1.024 25.088-1.024 9.728 0 19.456 0.512 29.184 1.024 5.632 0.512 11.264 1.024 16.896 1.536s11.264 1.536 16.896 2.56c124.416 19.968 217.6 97.792 236.544 191.488 4.096 14.336 6.656 29.696 6.656 44.544 0.512 6.144-4.608 11.264-10.752 11.264zM568.832 525.824c-5.12-1.024-10.24-1.536-15.36-2.048s-10.24-1.024-15.36-1.536c-8.704-0.512-16.896-1.024-25.6-1.024-7.168 0-14.848 0.512-23.552 1.024-5.12 0.512-10.24 0.512-15.36 1.024s-10.24 1.024-15.36 2.048c-114.176 16.896-198.656 86.016-210.432 168.96h527.872c-11.264-81.92-94.72-150.528-206.848-168.448z" />
<glyph unicode="&#xe910;" glyph-name="phone" d="M769.536 474.624c3.584-6.144 9.728-10.752 16.384-12.8 2.048-0.512 4.608-1.024 7.168-1.024 12.288 0 23.040 8.192 26.112 19.968 10.24 37.888 10.24 77.824 0 115.712s-30.208 72.192-57.856 99.84c-27.648 27.648-62.464 47.616-100.352 57.856-37.376 10.24-77.824 10.24-115.712 0-14.336-4.096-23.040-18.944-19.456-33.28s18.944-23.040 33.28-19.456c28.672 7.68 58.88 7.68 87.552 0s54.784-23.040 75.776-44.032c20.992-20.992 36.352-47.104 43.52-75.776 7.68-28.672 7.68-58.88 0-87.552-1.024-5.632 0-13.312 3.584-19.456zM1009.152 647.68c-18.944 71.168-56.832 136.192-108.544 187.904-52.224 52.224-117.248 89.6-188.416 108.544-70.656 18.944-146.432 18.944-217.088 0-7.168-2.048-12.8-6.144-16.384-12.8-3.584-6.144-4.608-13.824-2.56-20.48 3.584-14.336 18.944-23.040 33.28-19.456 61.44 16.384 127.488 16.384 188.928 0s118.272-49.152 163.328-94.72c45.568-45.056 78.336-101.888 94.72-163.328 16.384-61.952 16.384-126.976 0-188.928-4.096-14.336 4.608-29.696 19.456-33.28 2.048-0.512 4.608-1.024 7.168-1.024 12.288 0 23.040 8.192 26.112 19.968 18.944 71.168 18.944 146.432 0 217.6zM899.072 295.424c-37.376 31.232-71.168 45.568-105.472 45.568-30.72 0-62.464-12.288-97.28-37.376l-2.56-1.536c0 0 0 0 0 0v0c0 0-0.512 0-0.512-0.512v0c-12.288-9.216-46.080-39.936-49.664-43.52-3.072-2.56-10.752-5.632-17.408-5.632-1.536 0-2.048 0-2.56 0s-60.928 18.432-175.616 130.56c-112.64 114.176-130.56 174.592-130.56 175.104-1.024 5.12 1.536 16.384 5.12 20.48 5.632 6.144 35.328 38.4 44.032 50.176 53.76 73.216 51.712 134.656-6.144 205.312-39.424 47.616-88.064 96.768-152.064 99.84-48.64 2.048-97.792-22.016-150.528-74.24-49.664-49.664-68.608-128-49.152-199.68 4.096-22.528 45.056-228.352 266.24-450.048 221.184-221.184 427.008-262.656 449.024-266.24 18.432-5.12 37.888-7.68 57.344-7.68 54.784 0 107.008 20.48 143.36 56.832 52.224 52.224 76.8 101.376 74.24 150.528-3.584 64-52.224 112.64-99.84 152.064zM885.76 31.232c-26.112-26.112-64-40.96-104.448-40.96-14.848 0-29.696 2.048-44.032 6.144-1.024 0-2.048 0.512-3.072 0.512-2.048 0.512-206.336 36.352-421.376 251.392-214.528 214.528-250.88 419.328-251.392 421.376 0 1.024-0.512 2.048-0.512 3.072-14.848 54.272-1.024 112.128 34.816 148.48 38.912 38.912 74.24 58.368 105.472 58.368 1.024 0 2.56 0 3.584 0 43.008-2.048 80.896-41.472 112.64-79.872 42.496-51.712 43.52-85.504 4.608-138.24-5.632-7.68-29.696-34.304-40.448-45.568-15.872-17.408-23.552-47.104-17.92-70.144 0.512-2.56 17.408-68.608 136.192-191.488v0c3.072-3.584 14.848-15.36 18.432-18.432v0c122.88-118.272 188.928-135.168 191.488-136.192 5.12-1.024 10.24-1.536 15.872-1.536 19.968 0 40.96 7.68 54.272 19.968 13.824 12.8 38.4 34.816 45.568 40.448 26.624 19.968 47.616 28.672 67.584 28.672 20.992 0 43.008-10.24 70.656-33.28 38.4-31.744 77.824-69.632 79.872-112.64 2.048-33.28-16.896-69.12-57.856-110.080z" />
<glyph unicode="&#xe911;" glyph-name="presc" d="M789.504 240.128h-540.672c-11.776 0-20.992-9.728-20.992-20.992 0-11.776 9.728-20.992 20.992-20.992h540.672c11.776 0 20.992 9.728 20.992 20.992 0.512 11.264-9.216 20.992-20.992 20.992zM538.112 126.464h-289.28c-11.776 0-20.992-9.728-20.992-20.992 0-11.776 9.728-20.992 20.992-20.992h289.28c11.776 0 20.992 9.728 20.992 20.992s-9.728 20.992-20.992 20.992zM789.504 353.792h-540.672c-11.776 0-20.992-9.728-20.992-20.992 0-11.776 9.728-20.992 20.992-20.992h540.672c11.776 0 20.992 9.728 20.992 20.992 0.512 11.776-9.216 20.992-20.992 20.992zM789.504 467.968h-540.672c-11.776 0-20.992-9.728-20.992-20.992 0-11.776 9.728-20.992 20.992-20.992h540.672c11.776 0 20.992 9.728 20.992 20.992 0.512 11.264-9.216 20.992-20.992 20.992zM465.408 580.608l-28.672-28.672h37.376l73.216 73.216 30.208-30.208h34.304l-47.616 47.104 28.672 28.672v37.376l-47.616-47.616-28.16 28.16 2.56 0.512c28.16 7.68 47.616 33.28 47.616 61.952 0 35.328-28.672 64-64.512 64h-41.472c-5.12 0-10.24-2.048-14.336-5.12l-16.896-14.336c-2.56-2.048-1.024-6.656 2.56-6.656h70.656c20.48 0 37.376-16.896 37.376-37.376 0-19.968-16.384-36.864-36.352-37.376h-12.8l0.512-0.512-0.512-33.28 36.864-36.864-44.032-44.032-5.12 1.024c-26.624 6.144-50.688 21.504-68.096 43.008-17.92 22.016-27.136 49.152-27.136 77.312 0 69.12 55.296 125.44 123.904 125.44h0.512c68.096 0 124.416-55.808 124.416-123.904 0-32.256-11.776-62.976-34.304-86.528l-4.608-4.608 16.896-15.872 4.608 4.608c26.624 27.648 40.96 64 40.96 102.4-0.512 81.408-66.56 147.456-147.968 147.456h-0.512c-81.408-0.512-147.456-67.072-146.944-148.48 0-33.792 11.264-65.536 32.256-91.648 18.432-23.552 44.032-40.96 72.192-49.152zM864.768 957.952h-712.704c-50.176 0-91.136-40.96-91.136-91.136v-840.192c0-50.176 40.96-91.136 91.136-91.136h712.704c50.176 0 91.136 40.96 91.136 91.136v840.192c0 50.176-40.448 91.136-91.136 91.136zM908.8 27.136c0-24.064-19.456-43.52-43.52-43.52h-713.216c-24.064 0-43.52 19.456-43.52 43.52v839.68c0 24.064 19.456 43.52 43.52 43.52h712.704c24.064 0 43.52-19.456 43.52-43.52v-839.68z" />
<glyph unicode="&#xe912;" glyph-name="profile-pic" d="M512 495.616c112.128 0 203.776 110.592 203.776 246.272-0.512 128.512-83.968 218.112-203.776 218.112s-203.776-89.6-203.776-218.112c0-135.68 91.648-246.272 203.776-246.272zM512 923.136c99.84 0 166.4-72.704 166.4-180.736 0-115.2-74.752-209.408-166.4-209.408-92.16 0-166.912 93.696-166.912 208.896 0 108.544 67.072 181.248 166.912 181.248zM534.528 434.176h-45.568c-204.288 0-341.504-116.736-341.504-290.816 0-10.24 8.192-18.432 18.432-18.432h120.832c10.24 0 18.432 8.192 18.432 18.432s-8.192 18.432-18.432 18.432h-101.376c9.216 143.872 126.464 235.52 303.616 235.52h45.568c177.664 0 294.912-91.648 304.128-235.52h-101.888c-10.24 0-18.432-8.192-18.432-18.432s8.192-18.432 18.432-18.432h120.832c10.24 0 18.432 8.192 18.432 18.432 0 174.080-137.216 290.816-341.504 290.816zM512 269.312c-91.648 0-166.4-74.752-166.4-166.4s74.752-166.4 166.4-166.4 166.4 74.752 166.4 166.4c0 92.16-74.752 166.4-166.4 166.4zM512-26.112c-71.168 0-129.536 57.856-129.536 129.536 0 71.168 57.856 129.536 129.536 129.536 71.168 0 129.536-57.856 129.536-129.536-0.512-71.68-58.368-129.536-129.536-129.536zM580.096 117.248h-51.2v51.2c0 9.216-7.68 16.896-16.896 16.896s-16.896-7.68-16.896-16.896v-51.2h-51.2c-9.216 0-16.896-7.68-16.896-16.896s7.68-16.896 16.896-16.896h51.2v-51.2c0-9.216 7.68-16.896 16.896-16.896s16.896 7.68 16.896 16.896v51.2h51.2c9.216 0 16.896 7.68 16.896 16.896s-7.168 16.896-16.896 16.896z" />
<glyph unicode="&#xe913;" glyph-name="profile" d="M540.16 299.52h-56.32c-252.416 0-421.888-135.168-421.888-350.208 0-12.8 10.24-13.312 23.040-13.312h648.192c12.8 0 23.040 10.24 23.040 23.040s-10.24 23.040-23.040 23.040h-624.64c11.264 153.6 156.16 261.12 375.296 261.12h56.32c219.136 0 364.032-107.52 375.296-261.12h-63.488c-12.8 0-23.040-10.24-23.040-23.040s10.24-23.040 23.040-23.040h87.040c12.8 0 23.040 1.024 23.040 13.312 0 215.040-169.472 350.208-421.888 350.208zM512 958.464c-147.968 0-251.392-110.592-251.392-269.312 0-167.936 112.64-304.128 251.392-304.128s251.392 136.704 251.392 304.128c0 158.72-103.424 269.312-251.392 269.312zM512 430.592c-113.664 0-205.824 116.224-205.824 258.56 0 133.632 82.944 223.232 205.824 223.232s205.824-89.6 205.824-223.232c0-142.336-92.16-258.56-205.824-258.56z" />
<glyph unicode="&#xe914;" glyph-name="recomend-pharm" d="M975.872 332.288l-5.12 1.024c-7.168 1.536-7.168 1.536-12.8 2.048l-16.384 1.536c-27.648-1.024-51.2-3.072-74.24-8.192-10.752-2.048-21.504-4.608-34.816-7.168-1.536-0.512-37.888-8.704-46.592-10.752l-30.72-6.144c-19.456 36.864-46.080 52.736-94.208 55.296l-20.992-0.512c-15.36-1.024-31.232-3.072-52.736-7.168 0 0-31.744-6.144-35.328-6.656-6.656-1.024-11.264-1.536-12.288-2.048-62.976 18.944-115.712 27.648-165.888 27.648-48.64 0-95.232-8.192-147.456-26.624l-18.944-6.656c0 1.024-0.512 2.56-0.512 3.584-4.608 22.528-10.24 50.176-49.152 57.856l-139.776-12.288-8.704-1.024 0.512-2.048c-5.632-4.096-9.216-10.752-8.704-17.92 1.024-10.24 9.728-18.432 21.504-18.432 0 0 81.92 6.656 81.92 6.656l14.336 1.024c-0.512-1.536-1.024-3.072-1.536-5.12-12.288-48.128-10.752-97.792-9.216-146.944l1.024-14.848c2.56-46.080 5.632-93.184 25.088-135.168l-76.8-4.608c-5.632-0.512-10.752-3.072-14.848-7.168-3.584-4.096-5.632-9.728-5.632-15.36 0.512-11.264 10.24-19.968 21.504-19.968l120.32 7.68c37.888 15.36 42.496 80.896 45.568 123.904l0.512 4.096 28.16-8.704c74.24-23.552 124.416-33.28 173.056-33.28 13.824 0 27.136 1.024 40.96 2.56 4.096 0.512 7.68 1.024 11.776 1.536 21.504 3.584 28.672 5.12 116.736 28.16l7.68 2.048c17.408 4.608 32.256 8.192 45.056 11.264 8.192 2.048 17.408 3.072 31.744 4.608 0 0 29.184 3.072 38.912 4.096 16.896 2.048 32.768 4.096 49.152 7.168 43.52 8.192 87.552 20.992 134.656 38.912 2.56 1.024 5.632 2.048 8.192 3.072 11.264 3.584 22.528 6.144 35.84 8.192 5.632 1.024 19.968 3.072 32.256 4.608 20.48 3.072 36.352 7.168 40.96 26.112 11.776 46.080-4.096 78.336-44.032 90.112zM154.624 329.216c1.024 6.144 2.56 12.288 4.096 18.432 3.072-7.168 6.144-14.848 8.192-23.040-4.608-1.536-8.704-2.56-13.824-3.584l1.536 8.192zM177.152 79.36c0 0-3.072-12.288-4.096-15.36-2.56 5.632-5.12 13.312-7.68 22.528-6.144 26.112-6.656 29.184-7.68 39.424-1.024 6.144-2.048 14.848-4.608 31.744 1.024 0 1.536 0.512 2.56 0.512l6.144 0.512c8.704-2.048 12.288-2.56 14.336-3.072s3.584-0.512 7.68-2.048c0-29.696-2.048-53.248-6.656-74.24zM981.504 258.048c-2.048-0.512-4.608-1.024-8.192-1.536 0 0-27.136-3.584-32.768-4.608-16.384-2.56-29.696-5.632-41.984-9.728-3.584-1.024-7.168-2.56-10.752-3.584-81.92-31.744-113.152-37.376-212.48-47.616-15.872-1.536-26.624-3.072-36.864-5.632-13.312-3.072-28.16-6.656-46.080-11.264l-11.264-2.56c-83.968-22.016-90.112-22.528-113.152-26.112h-6.144c-10.752-1.024-21.504-2.048-32.256-2.048-49.152 0-100.864 13.312-163.84 33.28l-49.664 15.872c-41.472 13.312-51.712 16.896-67.072 17.408l-0.512 20.48c-0.512 11.776-0.512 11.776 0 22.016l1.024 25.088 2.048 0.512c12.288 2.048 25.6 5.632 43.008 11.776l44.032 15.872c47.616 16.384 90.112 24.064 134.144 24.064 46.080 0 94.72-8.192 154.112-25.6 3.584-1.024 7.168-1.536 11.264-1.536 5.12 0 11.264 0.512 19.968 2.048 4.608 1.024 36.352 7.168 36.352 7.168 18.432 3.584 33.28 5.632 47.616 6.656l17.408 0.512c30.208-3.584 50.688-6.144 60.416-34.304-1.024-1.536-7.168-6.656-45.568-13.312-3.072 0-92.672-13.824-116.224-17.92-20.48-4.096-36.864-5.632-52.224-5.632-13.824 0-27.136 1.536-41.472 5.12-11.776 3.072-53.76 16.384-70.656 22.016l-8.704 2.56-4.608 1.024h-1.536c-9.216 0-17.408-6.144-19.968-14.848-3.072-10.752 3.072-22.528 15.872-26.624l7.168-2.56c17.408-5.632 59.904-19.456 72.704-22.528 17.408-4.096 33.792-6.144 51.2-6.144 17.92 0 36.864 2.048 59.904 6.656 28.16 5.632 112.128 17.408 114.176 17.92l8.704 1.536c22.016 3.584 55.296 9.216 66.56 30.72l38.912 8.192c9.216 2.048 45.568 10.24 47.616 10.752 12.8 3.072 23.552 5.12 33.792 7.168 26.112 5.12 46.592 7.168 62.976 7.168 10.752 0 19.456-1.024 26.112-3.072 15.872-6.656 20.48-15.36 16.896-34.816zM383.488 591.36l-26.624-156.16c-1.024-5.12 0.512-10.752 4.096-14.848s8.704-6.656 13.824-6.656l6.656 1.024 141.824 74.752 140.288-73.728 6.144-2.048h2.048c5.12 0 10.24 2.56 13.824 6.656s4.608 9.216 4.096 14.848l-27.136 156.16 113.152 110.592c5.12 4.608 6.656 11.776 4.608 18.432s-7.68 11.264-14.336 12.288l-156.672 22.528-70.656 141.312c-3.072 5.632-9.216 9.728-15.872 9.728-7.168 0-13.312-4.096-16.384-10.24l-69.632-140.8-156.672-22.528c-6.656-1.024-12.288-5.632-14.336-12.288s-0.512-13.824 4.608-18.432l113.152-110.592zM451.072 720.896c6.144 1.024 11.264 4.608 13.824 9.728l57.856 117.76 57.856-117.76c2.56-5.12 7.68-9.216 13.824-9.728l129.536-18.944-93.696-91.648c-4.096-4.096-6.144-10.24-5.12-15.872l22.016-129.024-116.224 60.928-6.144 2.048h-2.048l-6.656-1.024-117.76-61.952 22.016 129.024c1.024 5.632-1.024 11.776-5.12 15.872l-93.696 91.648 129.536 18.944z" />
<glyph unicode="&#xe915;" glyph-name="roshetta" d="M512 957.44h-2.048c-261.632-1.024-473.6-215.040-472.576-476.672 0.512-108.544 36.352-210.432 104.448-294.912 59.392-74.24 140.8-129.024 230.912-157.184l-92.672-92.672 119.296-0.512 235.52 235.52 96.768-96.768 110.080 0.512-152.064 151.552 92.672 92.16v119.808l-152.576-152.576-90.624 90.112 8.192 2.048c90.112 24.064 153.088 105.984 153.088 199.168 0 113.664-92.672 206.336-206.848 206.336h-133.12c-16.384 0-32.768-5.632-45.056-16.384l-56.32-47.104c-8.704-7.168-3.584-21.504 7.68-21.504h226.816c66.048 0 119.296-53.76 119.296-120.32 0-65.024-52.736-118.784-117.248-119.808l-39.936-0.512 1.024-1.024-1.024-106.496 118.784-118.784-141.312-141.312-15.872 3.584c-85.504 20.48-162.816 69.632-218.624 138.752-55.808 71.168-86.016 157.184-86.528 248.32-1.024 220.672 177.664 400.896 397.824 401.92h2.048c219.136 0 398.848-178.688 399.872-398.336 0.512-103.936-38.4-202.24-110.080-277.504l-13.824-14.848 54.272-51.712 13.824 14.848c84.992 89.088 131.072 206.336 130.56 329.216-1.536 261.12-214.016 473.088-474.624 473.088z" />
<glyph unicode="&#xe916;" glyph-name="search" d="M672.256 808.448c59.392-80.896 80.384-178.176 66.048-270.336-12.288-79.36-50.688-154.624-113.152-211.968l33.28-45.568c21.504 0 42.496-9.728 56.32-28.16l149.504-204.288c11.264-15.36 15.36-33.792 12.288-51.2-2.56-17.408-11.776-33.792-27.136-45.056-30.72-22.528-73.728-15.872-96.256 14.848l-150.528 204.8c-13.312 18.432-16.384 41.472-9.728 61.952l-33.28 45.568c-158.72-91.136-363.52-50.688-474.112 100.352-58.88 80.384-79.872 177.664-65.536 269.824s63.488 178.688 144.384 237.568c161.792 118.784 389.12 83.456 507.904-78.336zM635.904 553.984c10.752 68.608-6.144 137.216-47.104 193.024-84.992 116.224-247.808 141.312-363.52 56.32-56.32-40.96-92.672-101.376-103.424-169.984s6.144-137.216 47.104-193.536c84.992-115.712 247.808-140.8 363.52-55.808 56.32 40.96 92.672 101.376 103.424 169.984z" />
<glyph unicode="&#xe917;" glyph-name="signout" d="M705.536 229.376c-7.168 0-13.824-3.072-17.92-8.704-68.096-90.624-172.544-142.336-285.696-142.336-197.12 0-357.376 160.256-357.376 357.376s160.256 357.376 357.376 357.376c118.784 0 229.888-58.88 296.448-157.696 4.096-6.144 11.264-9.728 18.432-9.728 4.608 0 8.704 1.536 12.288 3.584 5.12 3.584 8.192 8.192 9.216 14.336 1.024 5.632 0 11.776-3.584 16.896-74.752 111.104-199.68 177.152-333.312 177.152-221.184 0-401.408-180.224-401.408-401.92s180.224-401.92 401.92-401.92c127.488 0 244.224 58.368 321.024 160.256 3.584 4.608 5.12 10.752 4.096 16.384-1.024 6.144-4.096 11.264-8.704 14.848-3.584 2.56-8.192 4.096-12.8 4.096zM1015.808 436.736l-200.192 163.84c-4.096 3.072-9.216 5.12-13.824 5.12-6.656 0-12.8-3.072-17.408-8.192-7.68-9.728-6.144-23.552 3.072-31.232l149.504-122.368h-461.312c-13.312 0-24.576-10.752-24.576-24.576s10.752-24.576 24.576-24.576h461.824l-146.944-123.392c-4.608-4.096-7.168-9.216-7.68-15.36s1.536-11.776 5.12-16.384c4.096-5.12 10.24-8.192 16.896-8.192 5.12 0 10.24 2.048 14.336 5.12l196.096 164.864c5.12 4.096 8.192 10.752 8.192 17.408 0.512 7.68-2.56 13.824-7.68 17.92z" />
<glyph unicode="&#xe918;" glyph-name="star" d="M811.008-27.842c21.504 2.56 36.864 22.528 34.304 44.032 0 0.512 0 1.024 0 1.536l-50.176 307.712 219.648 219.136c15.36 15.36 15.36 40.448 0.512 56.32-6.144 6.144-13.824 9.728-22.016 11.264l-306.176 47.104-138.752 278.528c-9.728 19.456-33.28 27.648-52.736 17.408-7.68-3.584-13.824-10.24-17.408-17.408l-138.752-278.528-306.176-47.104c-21.504-3.584-36.352-23.552-32.768-45.056 1.536-8.192 5.12-15.872 11.264-22.016l219.648-219.136-50.176-307.712c-3.584-21.504 10.752-41.984 32.256-45.568 8.704-1.536 17.408 0 25.088 4.096l274.944 143.36 274.944-143.36c6.656-4.096 14.848-5.632 22.528-4.608v0zM754.688 83.262l-223.232 116.224c-11.264 6.144-25.088 6.144-36.352 0l-223.232-116.224 40.96 249.856c2.048 12.8-2.048 25.6-11.264 34.816l-178.688 178.176 248.32 37.888c12.8 2.048 23.552 9.728 29.184 21.504l112.64 226.816 112.64-226.816c5.632-11.776 16.896-19.456 29.184-21.504l248.32-37.888-178.688-178.176c-9.216-9.216-13.312-22.016-11.264-34.816l41.472-249.856z" />
<glyph unicode="&#xe919;" glyph-name="Subtract" d="M409.088 363.326h-307.712c-56.832 0-102.4 46.080-102.4 102.4s46.080 102.4 102.4 102.4h820.224c56.832 0 102.4-46.080 102.4-102.4s-46.080-102.4-102.4-102.4h-512.512z" />
<glyph unicode="&#xe91a;" glyph-name="take-a-picture" d="M722.432 394.24c0 115.2-93.696 208.896-208.896 208.896s-209.408-93.696-209.408-208.896c0-115.2 93.696-208.896 208.896-208.896s209.408 93.696 209.408 208.896zM350.72 394.24c0 90.112 72.704 162.304 162.304 162.304 90.112 0 162.304-72.704 162.304-162.304 0-90.112-72.704-162.304-162.304-162.304s-162.304 72.192-162.304 162.304zM943.616 696.32h-183.296l-51.712 103.424c-4.096 7.68-11.776 12.8-20.48 12.8h-348.16c-0.512 0-1.536 0-2.048 0-8.192-1.024-14.848-5.632-18.432-12.8l-52.736-103.424h-183.808c-44.544 0-80.384-36.864-80.384-81.408v-371.2c0-12.8 10.24-23.552 23.040-23.552s23.552 10.24 23.552 23.040c0 0 0 0.512 0 0.512v371.2c0 19.968 14.848 34.816 34.304 34.816h198.144c8.704 0 16.896 5.12 20.48 13.312l51.2 102.912h320l51.2-102.912c4.096-7.68 11.776-12.8 20.48-13.312h198.144c18.944 0 34.304-14.848 34.304-34.816v-464.384c0-19.968-14.848-34.816-34.304-34.816h-860.16c-18.944 0-34.304 14.848-34.304 34.816 0 12.8-10.24 23.552-23.040 23.552s-23.552-10.24-23.552-23.040c0 0 0-0.512 0-0.512 0-44.544 36.352-81.408 80.384-81.408h860.672c44.544 0 80.384 36.864 80.384 81.408v464.384c0.512 44.544-35.84 81.408-79.872 81.408z" />
<glyph unicode="&#xe91b;" glyph-name="upload" d="M990.208 389.12c-18.944 0.512-34.304-14.848-34.816-33.792 0-0.512 0-0.512 0-1.024v-238.592h-887.296v238.592c0.512 18.944-14.336 34.304-33.28 34.816-0.512 0-0.512 0-1.024 0-18.944 0-33.792-15.872-33.792-34.304 0 0 0 0 0-0.512v-272.896c0-18.944 15.36-34.304 34.304-34.304h955.392c18.944 0 34.304 15.36 34.304 34.304v272.896c0 19.456-15.36 34.816-33.792 34.816zM284.672 625.664c0.512 0.512 1.536 1.536 2.048 2.048l190.976 208.384v-526.848c0-17.92 15.872-34.816 34.304-34.816 17.92 0 34.304 16.896 34.304 34.816v526.848l190.976-208.384c12.288-14.336 33.792-16.384 48.128-4.608 14.336 12.288 16.384 33.792 4.608 48.128-0.512 0.512-1.024 1.536-2.048 2.048l-250.88 273.408c-7.168 7.68-17.408 11.776-27.648 11.264-8.704-0.512-16.896-4.608-22.528-11.264l-250.368-272.896c-13.312-13.312-13.312-34.816 0.512-48.128 12.8-13.824 34.816-13.312 47.616 0z" />
<glyph unicode="&#xe920;" glyph-name="dumbbell" d="M990.208 389.12c-18.944 0.512-34.304-14.848-34.816-33.792 0-0.512 0-0.512 0-1.024v-238.592h-887.296v238.592c0.512 18.944-14.336 34.304-33.28 34.816-0.512 0-0.512 0-1.024 0-18.944 0-33.792-15.872-33.792-34.304 0 0 0 0 0-0.512v-272.896c0-18.944 15.36-34.304 34.304-34.304h955.392c18.944 0 34.304 15.36 34.304 34.304v272.896c0 19.456-15.36 34.816-33.792 34.816zM284.672 625.664c0.512 0.512 1.536 1.536 2.048 2.048l190.976 208.384v-526.848c0-17.92 15.872-34.816 34.304-34.816 17.92 0 34.304 16.896 34.304 34.816v526.848l190.976-208.384c12.288-14.336 33.792-16.384 48.128-4.608 14.336 12.288 16.384 33.792 4.608 48.128-0.512 0.512-1.024 1.536-2.048 2.048l-250.88 273.408c-7.168 7.68-17.408 11.776-27.648 11.264-8.704-0.512-16.896-4.608-22.528-11.264l-250.368-272.896c-13.312-13.312-13.312-34.816 0.512-48.128 12.8-13.824 34.816-13.312 47.616 0z" />
</font>
</defs>
</svg>
